<svg width="24" height="24" viewBox="0 0 24 24" fill="none" xmlns="http://www.w3.org/2000/svg">
<g clip-path="url(#clip0_293_364)">
<path d="M6.15195 22.9081L10.8812 20.07C10.9589 20.0234 11.0479 19.9988 11.1385 19.9988L19.0004 19.9988C21.2096 19.9988 23.0005 18.2078 23.0004 15.9986L23.0001 4.99968C23 2.79067 21.2093 0.999925 19.0003 0.999814L5.0011 0.999111C2.79189 0.999 1.0009 2.78989 1.0009 4.99911L1.0009 15.9989C1.0009 18.208 2.79171 19.9988 5.00082 19.9989L5.9005 19.9989C5.95573 19.9989 6.0005 20.0437 6.0005 20.0989L6.0005 22.8224C6.0005 22.9001 6.0853 22.9481 6.15195 22.9081Z" fill="white" stroke="#8E7BEA" stroke-width="2"/>
<path fill-rule="evenodd" clip-rule="evenodd" d="M9 6.99984L8.99968 8.99979L10.332 9H9C7.89543 9 7 9.89543 7 11V15C7 16.1046 7.89543 17 9 17H15C16.1046 17 17 16.1046 17 15V11C17 9.89543 16.1046 9 15 9H10.9997L11 7.00906C11.0002 7.00509 11.0005 6.997 11.0014 6.98531C11.0034 6.95721 11.0079 6.91053 11.0176 6.8519C11.038 6.72989 11.0768 6.5825 11.1444 6.44721C11.2101 6.31584 11.2929 6.21489 11.3984 6.14455C11.4977 6.07838 11.675 6 12 6C12.325 6 12.5023 6.07838 12.6015 6.14455C12.7071 6.21489 12.7899 6.31584 12.8556 6.44721C12.9232 6.58249 12.962 6.72988 12.9823 6.85189C12.9921 6.91052 12.9966 6.9572 12.9986 6.9853C12.9994 6.99695 12.9998 7.00503 13 7.00901V8.99997H15V7H14.0544C15 6.99999 15 6.9995 15 6.99901L15 6.99796L15 6.99571L14.9999 6.99062L14.9998 6.97814C14.9996 6.96882 14.9994 6.95747 14.9989 6.94423C14.9981 6.91779 14.9964 6.88363 14.9935 6.84282C14.9877 6.76155 14.9766 6.65198 14.9551 6.52311C14.913 6.27012 14.8268 5.91751 14.6444 5.55279C14.4601 5.18416 14.1679 4.78511 13.7109 4.48045C13.2477 4.17162 12.675 4 12 4C11.325 4 10.7523 4.17162 10.2891 4.48045C9.83206 4.78511 9.53989 5.18416 9.35557 5.55279C9.17322 5.9175 9.08702 6.27011 9.04486 6.5231C9.02338 6.65197 9.01225 6.76154 9.00645 6.84282C9.00353 6.88362 9.00192 6.91778 9.00104 6.94422C9.0006 6.95746 9.00034 6.96881 9.00019 6.97814L9.00004 6.99061L9.00001 6.9957L9 6.99795L9 6.999C9 6.99937 9 6.99973 9.39485 6.9999L9 6.99984ZM12.8011 13.282C13.1459 13.0521 13.3697 12.6814 13.3697 12.2632C13.3697 11.5655 12.7469 11 11.9786 11C11.2103 11 10.5875 11.5655 10.5875 12.2632C10.5875 12.695 10.8261 13.0762 11.1902 13.304L10.5956 14.775C10.5425 14.9065 10.6393 15.05 10.7811 15.05H13.2191C13.3609 15.05 13.4576 14.9065 13.4045 14.775L12.8011 13.282Z" fill="#8E7BEA"/>
</g>
<defs>
<clipPath id="clip0_293_364">
<rect width="24" height="24" fill="white"/>
</clipPath>
</defs>
</svg>
